<?xml version="1.0" encoding="UTF-8" standalone="no"?>
<!-- Created with Inkscape (http://www.inkscape.org/) -->

<svg
   width="63.335781mm"
   height="10.583341mm"
   viewBox="0 0 63.335781 10.583341"
   version="1.1"
   id="svg1"
   xml:space="preserve"
   xmlns="http://www.w3.org/2000/svg"
   xmlns:svg="http://www.w3.org/2000/svg"><defs
     id="defs1" /><g
     id="layer1"
     transform="translate(-25.810156,-33.845217)"><path
       d="m 36.14836,42.421102 7.94e-4,8.99e-4 -1.711881,1.50204 c -0.350996,0.315595 -0.804836,0.494374 -1.277937,0.503185 l -0.004,7.9e-5 h -5.86645 c -0.217165,0.0091 -0.433567,-0.03151 -0.63246,-0.118824 -0.202409,-0.08882 -0.381225,-0.22352 -0.522044,-0.393462 -0.140828,-0.169889 -0.239702,-0.370152 -0.288842,-0.584756 -0.04823,-0.210952 -0.04718,-0.430318 0.0033,-0.640847 l 0.451665,-2.299759 c 0.04018,-0.200183 0.146367,-0.381396 0.301794,-0.514773 l 0.02215,-0.019 c -0.04808,-0.07258 -0.08325,-0.152982 -0.10387,-0.237702 -0.02736,-0.112368 -0.02831,-0.229287 -0.0031,-0.341735 l 0.452562,-2.304045 6.98e-4,-0.0033 c 0.08807,-0.413438 0.309917,-0.786707 0.631579,-1.062662 l 1.567336,-1.375214 c 0.07252,-0.08284 0.152136,-0.159999 0.238258,-0.230542 0.343085,-0.281032 0.770016,-0.441066 1.21412,-0.455232 l 0.0074,-2.36e-4 5.873565,0.01681 c 0.216932,-0.009 0.43307,0.03165 0.631746,0.118843 0.202432,0.08884 0.381238,0.223551 0.522049,0.393451 0.140811,0.169873 0.239713,0.370155 0.288846,0.584851 0.04829,0.21101 0.04715,0.430204 -0.0032,0.640622 l -1.121913,5.727047 -0.0016,0.007 c -0.09853,0.425582 -0.334063,0.807297 -0.670507,1.087279 z"
       fill="#03301d"
       id="path55"
       style="fill:#212529;fill-opacity:1;stroke-width:0.264583" /><path
       d="m 36.411303,34.391231 c 0.154305,-0.0078 0.308292,0.02065 0.449659,0.083 0.141367,0.06234 0.266198,0.156869 0.364517,0.276064 0.09829,0.119192 0.167349,0.259718 0.201665,0.410363 0.03429,0.150646 0.03289,0.30724 -0.0041,0.45724 l -1.117098,5.73069 c -0.07848,0.340492 -0.267387,0.645477 -0.537315,0.867357 -0.269928,0.22188 -0.605711,0.348218 -0.954961,0.359304 h -5.844725 c -0.154332,0.0077 -0.308346,-0.02074 -0.449765,-0.08308 -0.14142,-0.06236 -0.266325,-0.156845 -0.364779,-0.27596 -0.09845,-0.119142 -0.16774,-0.25961 -0.202335,-0.41021 -0.03459,-0.150628 -0.03354,-0.307261 0.0031,-0.457412 l 0.451056,-2.318412 c 0.02645,-0.113162 0.08957,-0.214391 0.179525,-0.287946 0.08996,-0.07358 0.201719,-0.115358 0.317897,-0.118824 1.066509,0.03794 2.09087,0.118031 3.045672,0.461566 l 0.210767,1.325721 c 0.0052,0.03201 0.02204,0.06096 0.04736,0.0812 0.02532,0.02027 0.05726,0.0304 0.08964,0.02842 0.03717,-6.62e-4 0.07355,-0.01111 0.105384,-0.03037 0.03183,-0.01924 0.05802,-0.04659 0.07588,-0.07924 l 0.720831,-1.325721 1.441688,-0.455242 c 0.03487,-0.01117 0.06625,-0.0312 0.09102,-0.05818 0.02477,-0.02699 0.04207,-0.05995 0.05019,-0.09565 0.0083,-0.03159 0.0044,-0.06511 -0.01085,-0.09398 -0.01519,-0.02887 -0.04064,-0.05096 -0.07136,-0.06199 L 33.43519,37.86675 33.224423,36.541081 c -0.0051,-0.0322 -0.02196,-0.06138 -0.0472,-0.08197 -0.02527,-0.02061 -0.05723,-0.03119 -0.0898,-0.02974 -0.03741,8.47e-4 -0.07392,0.01164 -0.10578,0.03127 -0.03186,0.01963 -0.05792,0.04739 -0.07549,0.08043 l -0.720831,1.325669 c -1.045289,0.299825 -2.126853,0.454474 -3.21429,0.459501 -0.0522,0.0044 -0.104696,-0.0036 -0.153194,-0.02341 -0.0485,-0.01979 -0.0916,-0.0508 -0.125757,-0.09051 -0.03416,-0.03971 -0.05839,-0.087 -0.07072,-0.137901 -0.01233,-0.05091 -0.01241,-0.104034 -2.11e-4,-0.154993 l 0.451061,-2.318406 c 0.07803,-0.340326 0.266541,-0.645237 0.536125,-0.867143 0.269584,-0.221908 0.60505,-0.348287 0.954035,-0.359476 z"
       fill="#86ee02"
       id="path56"
       style="fill:#4764e7;fill-opacity:1;stroke-width:0.264583" /><path
       d="m 72.36487,42.048092 c -1.083733,0 -1.852612,-0.441933 -2.094971,-1.275741 l 1.417109,-0.642012 c 0.100541,0.341842 0.394229,0.500275 0.927629,0.500275 0.414867,0 0.750358,-0.125069 0.797189,-0.391901 0.059,-0.333508 -0.270933,-0.38354 -0.77417,-0.458576 -0.833173,-0.125069 -2.028825,-0.450268 -1.792023,-1.792684 0.182298,-1.033913 1.261798,-1.82603 2.531798,-1.82603 0.999066,0 1.767681,0.441915 2.010304,1.275723 l -1.417109,0.642038 c -0.112447,-0.275167 -0.37756,-0.500301 -0.91096,-0.500301 -0.372533,0 -0.596371,0.116734 -0.637381,0.350202 -0.05583,0.316839 0.298979,0.416904 0.842962,0.500275 0.824707,0.125095 1.954213,0.441933 1.716088,1.792684 -0.182298,1.033912 -1.346465,1.826048 -2.616465,1.826048 z"
       fill="#03301d"
       id="path57"
       style="fill:#212529;fill-opacity:1;stroke-width:0.264583" /><path
       d="m 80.97547,41.914663 h 1.591733 l 1.251744,-3.977243 0.316706,3.293533 c 0.04313,0.475271 0.425186,0.708739 0.890853,0.708739 0.474133,0 0.914929,-0.241802 1.146968,-0.742103 l 1.479286,-3.251835 -0.242623,3.968909 h 1.583266 l 0.151871,-4.702651 c 0.01905,-0.68371 -0.373591,-1.050589 -1.042458,-1.050589 -0.6096,0 -1.174486,0.275148 -1.445683,0.900517 l -1.29249,2.96 -0.252412,-2.98503 c -0.05054,-0.625342 -0.506148,-0.875487 -1.098815,-0.875487 -0.6858,0 -1.223169,0.358545 -1.45071,1.025586 z"
       fill="#03301d"
       id="path58"
       style="fill:#212529;fill-opacity:1;stroke-width:0.264583" /><path
       d="m 75.665547,39.371567 c -0.293952,1.667616 0.338402,2.643161 2.133336,2.643161 1.786466,0 2.779712,-0.975545 3.073664,-2.643161 l 0.543984,-3.085068 h -1.566334 l -0.536575,3.04337 c -0.152929,0.867172 -0.554831,1.225709 -1.257564,1.225709 -0.694267,0 -0.969698,-0.358537 -0.816769,-1.225709 l 0.536575,-3.04337 h -1.566333 z"
       fill="#03301d"
       id="path59"
       style="fill:#212529;fill-opacity:1;stroke-width:0.264583" /><path
       fill-rule="evenodd"
       clip-rule="evenodd"
       d="m 65.008131,41.914663 1.567921,-0.0083 0.241035,-1.36742 h 0.7112 c 1.659467,0 2.740554,-0.80047 2.978679,-2.151221 0.230717,-1.309079 -0.620183,-2.101189 -2.313517,-2.101189 h -2.192866 z m 2.308754,-4.210712 h 0.668867 c 0.677333,0 0.990335,0.241803 0.912547,0.683737 -0.08387,0.475271 -0.459581,0.733742 -1.162314,0.733742 h -0.668867 z"
       fill="#03301d"
       id="path60"
       style="fill:#212529;fill-opacity:1;stroke-width:0.264583" /><path
       d="m 63.420631,36.286499 h 1.566333 l -0.992452,5.628164 h -1.566333 z"
       fill="#03301d"
       id="path61"
       style="fill:#212529;fill-opacity:1;stroke-width:0.264583" /><path
       fill-rule="evenodd"
       clip-rule="evenodd"
       d="m 56.298841,39.104735 c -0.295539,1.67595 0.769409,2.934996 2.496609,2.934996 1.7272,0 3.236118,-1.259046 3.531658,-2.934996 0.295539,-1.675924 -0.769408,-2.934978 -2.496608,-2.934978 -1.7272,0 -3.236119,1.259054 -3.531659,2.934978 z m 4.4196,0 c -0.147108,0.833808 -0.86995,1.475846 -1.665816,1.475846 -0.795867,0 -1.292225,-0.642038 -1.145117,-1.475846 0.147108,-0.833781 0.869685,-1.475819 1.665552,-1.475819 0.795867,0 1.29249,0.642038 1.145381,1.475819 z"
       fill="#03301d"
       id="path62"
       style="fill:#212529;fill-opacity:1;stroke-width:0.264583" /><path
       d="m 53.023829,42.039731 c -1.710214,0 -2.786195,-1.292383 -2.496556,-2.934996 0.28964,-1.642586 1.804406,-2.934978 3.531606,-2.934978 1.016,0 1.92405,0.516951 2.172758,1.459159 l -1.402027,0.700405 c -0.16219,-0.425265 -0.433917,-0.70874 -1.094317,-0.70874 -0.804333,0 -1.4478,0.625343 -1.603771,1.509184 -0.163195,0.925512 0.27424,1.517517 1.13784,1.517517 0.4572,0 0.752475,-0.0417 1.036108,-0.258471 l 0.131234,-0.775494 -1.465527,-0.647594 h 3.094566 l -0.04366,0.264081 h 0.0034 l -0.04842,0.274029 -0.0029,0.01807 -2.65e-4,1.32e-4 -0.242623,1.375383 c -0.557742,0.667041 -1.556015,1.142312 -2.707481,1.142312 z"
       fill="#03301d"
       id="path63"
       style="fill:#212529;fill-opacity:1;stroke-width:0.264583" /><path
       fill-rule="evenodd"
       clip-rule="evenodd"
       d="m 44.325758,39.104735 c -0.295513,1.67595 0.769408,2.934996 2.496608,2.934996 1.7272,0 3.236145,-1.259046 3.531658,-2.934996 0.295513,-1.675924 -0.769408,-2.934978 -2.496608,-2.934978 -1.7272,0 -3.236145,1.259054 -3.531658,2.934978 z m 4.4196,0 c -0.147029,0.833808 -0.869818,1.475846 -1.665685,1.475846 -0.795866,0 -1.292278,-0.642038 -1.145249,-1.475846 0.147029,-0.833781 0.869844,-1.475819 1.665711,-1.475819 0.795867,0 1.292252,0.642038 1.145223,1.475819 z"
       fill="#03301d"
       id="path64"
       style="fill:#212529;fill-opacity:1;stroke-width:0.264583" /><path
       d="m 42.297594,36.286499 -0.742474,4.210712 h 2.523067 l -0.249925,1.417452 h -2.734734 c -0.9652,0 -1.266454,-0.500274 -1.126781,-1.292384 l 0.764514,-4.33578 z"
       fill="#03301d"
       id="path65"
       style="fill:#212529;fill-opacity:1;stroke-width:0.264583" /></g></svg>
