<?xml version="1.0" encoding="UTF-8" standalone="no"?>
<!-- Created with Inkscape (http://www.inkscape.org/) -->

<svg
   width="63.235409mm"
   height="11.357544mm"
   viewBox="0 0 63.235409 11.357544"
   version="1.1"
   id="svg1"
   xml:space="preserve"
   xmlns="http://www.w3.org/2000/svg"
   xmlns:svg="http://www.w3.org/2000/svg"><defs
     id="defs1" /><g
     id="layer1"
     transform="translate(-44.200298,-188.90139)"><path
       fill-rule="evenodd"
       clip-rule="evenodd"
       d="m 44.200296,192.87015 v 4.23333 h 1.322917 c 0.138977,0 0.276598,0.0274 0.405013,0.0806 0.128384,0.0532 0.245076,0.13113 0.343326,0.22942 0.09828,0.0983 0.17625,0.21495 0.229444,0.34335 0.05316,0.1284 0.08055,0.26601 0.08055,0.405 v 1.32291 h 3.175 l 3.96875,-3.96875 v -4.23333 h -1.322917 c -0.138985,0 -0.276595,-0.0274 -0.405024,-0.0806 -0.128376,-0.0532 -0.245057,-0.13114 -0.343323,-0.22942 -0.09827,-0.0983 -0.176239,-0.21495 -0.229447,-0.34335 -0.05316,-0.1284 -0.08054,-0.26602 -0.08054,-0.405 v -1.32292 h -3.175 z m 4.497917,3.96875 h -1.852084 v -2.91042 l 2.38125,-2.38125 h 1.852084 v 2.91042 z"
       fill="#0004E8"
       id="path2-2"
       style="fill:#7533f9;fill-opacity:1;stroke-width:0.264583" /><path
       d="m 105.20475,192.14143 c 0.66833,0 1.2057,0.20638 1.61184,0.61913 0.41275,0.40621 0.61912,0.97621 0.61912,1.70998 v 3.19394 h -1.37583 v -3.0072 c 0,-0.42588 -0.10822,-0.75018 -0.32438,-0.97293 -0.21617,-0.22931 -0.51091,-0.34396 -0.8845,-0.34396 -0.37333,0 -0.67152,0.11465 -0.89429,0.34396 -0.21617,0.22275 -0.32412,0.54705 -0.32412,0.97293 v 3.0072 h -1.37583 v -3.0072 c 0,-0.42588 -0.10822,-0.75018 -0.32438,-0.97293 -0.21617,-0.22931 -0.51118,-0.34396 -0.8845,-0.34396 -0.37995,0 -0.68131,0.11465 -0.90408,0.34396 -0.216169,0.22275 -0.324384,0.54705 -0.324384,0.97293 v 3.0072 h -1.375833 v -5.44444 h 1.375833 v 0.65844 c 0.177006,-0.22928 0.402964,-0.40946 0.678124,-0.54049 0.28178,-0.13104 0.58949,-0.19656 0.92366,-0.19656 0.42598,0 0.80592,0.0917 1.14009,0.27517 0.33417,0.1769 0.59293,0.43241 0.77629,0.76655 0.17701,-0.31448 0.43259,-0.56674 0.7665,-0.75673 0.34078,-0.19 0.70776,-0.28499 1.10067,-0.28499 z"
       fill="#000150"
       id="path4-3"
       style="fill:#000000;stroke-width:0.264583" /><path
       d="m 97.429964,192.22004 v 5.44444 h -1.385623 v -0.68794 c -0.176741,0.23587 -0.409575,0.42259 -0.697706,0.56017 -0.281781,0.13102 -0.589756,0.19656 -0.923925,0.19656 -0.425715,0 -0.802481,-0.0884 -1.130035,-0.26535 -0.327555,-0.18344 -0.586317,-0.44879 -0.776288,-0.79603 -0.183621,-0.3538 -0.275167,-0.77308 -0.275167,-1.2579 v -3.19395 h 1.375834 v 2.99739 c 0,0.43241 0.10795,0.76655 0.324114,1.0024 0.216429,0.22931 0.511175,0.34396 0.884502,0.34396 0.380207,0 0.678127,-0.11465 0.894292,-0.34396 0.216429,-0.23585 0.324379,-0.56999 0.324379,-1.0024 v -2.99739 z"
       fill="#000150"
       id="path6-2"
       style="fill:#000000;stroke-width:0.264583" /><path
       d="m 89.362554,197.75293 c -0.445559,0 -0.845344,-0.0786 -1.199092,-0.23588 -0.353748,-0.16377 -0.635529,-0.38327 -0.845079,-0.65844 -0.2032,-0.27517 -0.31459,-0.57981 -0.334169,-0.91395 h 1.385623 c 0.02619,0.20966 0.127794,0.38328 0.3048,0.52086 0.183356,0.13758 0.409311,0.20637 0.677863,0.20637 0.262202,0 0.465402,-0.0524 0.609335,-0.15724 0.150813,-0.10482 0.226219,-0.23913 0.226219,-0.4029 0,-0.1769 -0.09181,-0.30795 -0.275167,-0.39312 -0.177006,-0.0917 -0.461962,-0.19 -0.855133,-0.29483 -0.406136,-0.0983 -0.740304,-0.19981 -1.002242,-0.30464 -0.255587,-0.10483 -0.478367,-0.26535 -0.668337,-0.48154 -0.183621,-0.21622 -0.275167,-0.50776 -0.275167,-0.87466 0,-0.30136 0.0852,-0.57653 0.255587,-0.8255 0.176742,-0.24897 0.425715,-0.44551 0.746655,-0.58965 0.327818,-0.14415 0.710935,-0.21622 1.149879,-0.21622 0.648758,0 1.166283,0.16381 1.552839,0.49139 0.386557,0.32104 0.599546,0.7567 0.638704,1.30706 h -1.316831 c -0.01958,-0.21621 -0.111389,-0.38655 -0.275166,-0.51104 -0.157163,-0.13102 -0.370152,-0.19656 -0.638705,-0.19656 -0.248972,0 -0.442383,0.0459 -0.579966,0.13761 -0.130969,0.0917 -0.196586,0.21947 -0.196586,0.38325 0,0.18346 0.09181,0.32433 0.275167,0.42259 0.183621,0.0917 0.468577,0.18672 0.855133,0.28499 0.392907,0.0983 0.717286,0.19984 0.972873,0.30466 0.255588,0.10483 0.474927,0.26861 0.658548,0.49136 0.189971,0.21622 0.288131,0.50448 0.294746,0.86485 0,0.31445 -0.08837,0.59618 -0.265377,0.84515 -0.170392,0.24895 -0.419365,0.44551 -0.746919,0.58965 -0.320939,0.13759 -0.697706,0.20638 -1.130035,0.20638 z"
       fill="#000150"
       id="path8-2"
       style="fill:#000000;stroke-width:0.264583" /><path
       d="m 82.338396,193.00625 c 0.177006,-0.24897 0.419364,-0.45535 0.727339,-0.61912 0.314325,-0.17034 0.671513,-0.25554 1.071033,-0.25554 0.465138,0 0.884502,0.11467 1.258094,0.34399 0.379942,0.22928 0.677863,0.55687 0.894292,0.98274 0.222779,0.41931 0.333904,0.90739 0.333904,1.46428 0,0.5569 -0.111125,1.05154 -0.333904,1.48394 -0.216429,0.42588 -0.51435,0.75674 -0.894292,0.99259 -0.373592,0.23585 -0.792956,0.3538 -1.258094,0.3538 -0.39952,0 -0.753268,-0.0819 -1.061243,-0.24569 -0.301361,-0.16381 -0.547159,-0.37018 -0.737129,-0.61913 v 3.37082 h -1.375834 v -8.03889 h 1.375834 z m 2.87946,1.91635 c 0,-0.32758 -0.06879,-0.60931 -0.206375,-0.84516 -0.130969,-0.24241 -0.307975,-0.42584 -0.530754,-0.55033 -0.216165,-0.12449 -0.451909,-0.18672 -0.707496,-0.18672 -0.248973,0 -0.484717,0.0655 -0.707496,0.19654 -0.216429,0.12448 -0.393171,0.30792 -0.530754,0.55033 -0.130969,0.24241 -0.196585,0.52742 -0.196585,0.855 0,0.32758 0.06562,0.61259 0.196585,0.855 0.137583,0.24241 0.314325,0.42913 0.530754,0.56015 0.222779,0.12449 0.458523,0.18674 0.707496,0.18674 0.255587,0 0.491331,-0.0655 0.707496,-0.19655 0.222779,-0.13105 0.399785,-0.31777 0.530754,-0.56018 0.137583,-0.24241 0.206375,-0.53068 0.206375,-0.86482 z"
       fill="#000150"
       id="path10-16"
       style="fill:#000000;stroke-width:0.264583" /><path
       d="m 79.268964,191.57144 c -0.242358,0 -0.445293,-0.0753 -0.609071,-0.22603 -0.157427,-0.15724 -0.236008,-0.35052 -0.236008,-0.57982 0,-0.22931 0.07858,-0.41931 0.236008,-0.57 0.163778,-0.15724 0.366713,-0.23586 0.609071,-0.23586 0.242623,0 0.442384,0.0786 0.599546,0.23586 0.163777,0.15069 0.245798,0.34069 0.245798,0.57 0,0.2293 -0.08202,0.42258 -0.245798,0.57982 -0.157162,0.15068 -0.356923,0.22603 -0.599546,0.22603 z m 0.678127,0.6486 v 5.44444 h -1.375833 v -5.44444 z"
       fill="#000150"
       id="path12-8"
       style="fill:#000000;stroke-width:0.264583" /><path
       d="m 75.065794,197.75293 c -0.52414,0 -0.995628,-0.11467 -1.414992,-0.34396 -0.419365,-0.23587 -0.750094,-0.56674 -0.992717,-0.99258 -0.235744,-0.42585 -0.353748,-0.91723 -0.353748,-1.47413 0,-0.55689 0.121179,-1.04825 0.363538,-1.47413 0.248973,-0.42584 0.586581,-0.75342 1.012296,-0.98274 0.425979,-0.23585 0.900906,-0.3538 1.425045,-0.3538 0.52414,0 0.999067,0.11795 1.425046,0.3538 0.425715,0.22932 0.759884,0.5569 1.002242,0.98274 0.248973,0.42588 0.373592,0.91724 0.373592,1.47413 0,0.5569 -0.127794,1.04828 -0.383382,1.47413 -0.248973,0.42584 -0.589491,0.75671 -1.022085,0.99258 -0.425715,0.22929 -0.904081,0.34396 -1.434835,0.34396 z m 0,-1.19896 c 0.248972,0 0.481541,-0.059 0.69797,-0.1769 0.22278,-0.12449 0.399521,-0.30792 0.53049,-0.55033 0.131233,-0.24241 0.196585,-0.53724 0.196585,-0.88448 0,-0.51758 -0.137583,-0.91395 -0.41275,-1.18912 -0.268552,-0.28172 -0.599545,-0.42259 -0.992452,-0.42259 -0.393171,0 -0.7239,0.14087 -0.992716,0.42259 -0.261938,0.27517 -0.392907,0.67154 -0.392907,1.18912 0,0.51758 0.12753,0.91723 0.383117,1.19896 0.262202,0.27517 0.589756,0.41275 0.982663,0.41275 z"
       fill="#000150"
       id="path14-5"
       style="fill:#000000;stroke-width:0.264583" /><path
       d="m 69.142937,197.75293 c -0.52414,0 -0.995839,-0.11467 -1.41515,-0.34396 -0.419312,-0.23587 -0.750174,-0.56674 -0.992585,-0.99258 -0.235849,-0.42585 -0.353774,-0.91723 -0.353774,-1.47413 0,-0.55689 0.121205,-1.04825 0.363617,-1.47413 0.248946,-0.42584 0.586369,-0.75342 1.012216,-0.98274 0.425873,-0.23585 0.900853,-0.3538 1.424993,-0.3538 0.52414,0 0.99912,0.11795 1.424993,0.3538 0.425767,0.22932 0.759936,0.5569 1.002294,0.98274 0.248973,0.42588 0.373592,0.91724 0.373592,1.47413 0,0.5569 -0.127794,1.04828 -0.383381,1.47413 -0.248973,0.42584 -0.589492,0.75671 -1.022006,0.99258 -0.425847,0.22929 -0.904108,0.34396 -1.434809,0.34396 z m 0,-1.19896 c 0.248973,0 0.481542,-0.059 0.697759,-0.1769 0.222753,-0.12449 0.399653,-0.30792 0.530675,-0.55033 0.131048,-0.24241 0.196559,-0.53724 0.196559,-0.88448 0,-0.51758 -0.137583,-0.91395 -0.41275,-1.18912 -0.268632,-0.28172 -0.599493,-0.42259 -0.992585,-0.42259 -0.393091,0 -0.723952,0.14087 -0.992584,0.42259 -0.262043,0.27517 -0.393091,0.67154 -0.393091,1.18912 0,0.51758 0.127767,0.91723 0.383275,1.19896 0.26207,0.27517 0.58965,0.41275 0.982742,0.41275 z"
       fill="#000150"
       id="path16-7"
       style="fill:#000000;stroke-width:0.264583" /><path
       d="m 63.219975,197.75293 c -0.52414,0 -0.995839,-0.11467 -1.415151,-0.34396 -0.419312,-0.23587 -0.750173,-0.56674 -0.992584,-0.99258 -0.23585,-0.42585 -0.353775,-0.91723 -0.353775,-1.47413 0,-0.55689 0.121206,-1.04825 0.363617,-1.47413 0.248947,-0.42584 0.58637,-0.75342 1.012217,-0.98274 0.425847,-0.23585 0.900853,-0.3538 1.424993,-0.3538 0.524113,0 0.999119,0.11795 1.424966,0.3538 0.425873,0.22932 0.759989,0.5569 1.0024,0.98274 0.248973,0.42588 0.37346,0.91724 0.37346,1.47413 0,0.5569 -0.127767,1.04828 -0.383276,1.47413 -0.248973,0.42584 -0.58965,0.75671 -1.022059,0.99258 -0.425846,0.22929 -0.904134,0.34396 -1.434808,0.34396 z m 0,-1.19896 c 0.248972,0 0.481541,-0.059 0.697759,-0.1769 0.222752,-0.12449 0.399653,-0.30792 0.530674,-0.55033 0.131022,-0.24241 0.196559,-0.53724 0.196559,-0.88448 0,-0.51758 -0.137583,-0.91395 -0.412776,-1.18912 -0.268605,-0.28172 -0.599466,-0.42259 -0.992558,-0.42259 -0.393091,0 -0.723953,0.14087 -0.992584,0.42259 -0.26207,0.27517 -0.393092,0.67154 -0.393092,1.18912 0,0.51758 0.127768,0.91723 0.383276,1.19896 0.262069,0.27517 0.58965,0.41275 0.982742,0.41275 z"
       fill="#000150"
       id="path18-6"
       style="fill:#000000;stroke-width:0.264583" /><path
       d="m 58.011546,196.57363 h 2.260335 v 1.09082 h -3.636168 v -6.85956 h 1.375833 z"
       fill="#000150"
       id="path20-1"
       style="fill:#000000;stroke-width:0.264583" /><path
       d="m 66.744436,198.39579 c 0.348509,1.03642 1.32805,1.78297 2.481924,1.78297 h 0.143589 c 1.445842,0 2.617947,-1.17208 2.617947,-2.61789 v -0.14793 h -1.419331 v 0.14793 c 0,0.66199 -0.536628,1.19861 -1.198616,1.19861 H 69.22636 c -0.33737,0 -0.642197,-0.13938 -0.860002,-0.36369 z"
       fill="#000150"
       id="path22-8"
       style="fill:#000000;stroke-width:0.264583" /></g></svg>
