<?xml version="1.0" encoding="UTF-8" standalone="no"?>
<!-- Created with Inkscape (http://www.inkscape.org/) -->

<svg
   width="108.67807mm"
   height="28.575098mm"
   viewBox="0 0 108.67807 28.575098"
   version="1.1"
   id="svg1"
   xml:space="preserve"
   xmlns="http://www.w3.org/2000/svg"
   xmlns:svg="http://www.w3.org/2000/svg"><defs
     id="defs1" /><g
     id="layer1"
     transform="translate(-55.518008,-121.02322)"><g
       id="g66"
       transform="translate(0,6.3770011)"><path
         d="m 125.85713,125.47565 c -0.40191,0 -0.74163,-0.1389 -1.01944,-0.41672 -0.27782,-0.27781 -0.41672,-0.61515 -0.41672,-1.01203 0,-0.4068 0.1389,-0.74661 0.41672,-1.01946 0.27781,-0.27781 0.61753,-0.41672 1.01944,-0.41672 0.4019,0 0.73924,0.13891 1.01203,0.41672 0.27781,0.27285 0.41672,0.61266 0.41672,1.01946 0,0.39688 -0.13891,0.73422 -0.41672,1.01203 -0.27279,0.27782 -0.61013,0.41672 -1.01203,0.41672 z"
         fill="#370808"
         id="path30"
         style="fill:#000000;stroke-width:0.264583" /><path
         d="m 124.67391,134.3979 v -8.00695 h 2.35162 v 8.00695 z"
         fill="#370808"
         id="path31"
         style="fill:#000000;stroke-width:0.264583" /><path
         fill-rule="evenodd"
         clip-rule="evenodd"
         d="m 128.35215,136.75383 v -10.36288 h 2.23229 v 0.79624 h 0.0291 c 0.14076,-0.13856 0.29236,-0.26506 0.45455,-0.37952 0.526,-0.36711 1.1311,-0.55065 1.81584,-0.55065 0.60034,0 1.17316,0.15626 1.719,0.46879 0.5506,0.31255 0.99695,0.77639 1.33932,1.39155 0.34237,0.61515 0.50853,1.38162 0.49874,2.29939 0.005,0.69453 -0.0918,1.29976 -0.29025,1.8157 -0.19844,0.51099 -0.46646,0.93514 -0.8038,1.27249 -0.33735,0.33734 -0.71438,0.59036 -1.1311,0.75903 -0.41672,0.16867 -0.83846,0.253 -1.26497,0.253 -0.67469,0 -1.28005,-0.18852 -1.81584,-0.56555 -0.13467,-0.0962 -0.26246,-0.20034 -0.38338,-0.31253 h -0.0482 v 1.77123 z m 4.04812,-4.20139 c 0.34713,-0.005 0.6522,-0.0967 0.9152,-0.27533 0.26299,-0.17859 0.46884,-0.43161 0.61753,-0.75904 0.14896,-0.32742 0.22093,-0.7094 0.2159,-1.14596 0.005,-0.44648 -0.0693,-0.82849 -0.22331,-1.14599 -0.14869,-0.32245 -0.35956,-0.56801 -0.63235,-0.73668 -0.27305,-0.17365 -0.58552,-0.25797 -0.93768,-0.25302 -0.33232,-0.005 -0.62998,0.0769 -0.89297,0.24556 -0.263,0.16867 -0.47122,0.41426 -0.62521,0.73671 -0.15373,0.3175 -0.23045,0.70196 -0.23045,1.15342 0,0.43656 0.0767,0.81854 0.23045,1.14596 0.15875,0.32743 0.37227,0.58045 0.64002,0.75904 0.26803,0.17859 0.57547,0.27038 0.92287,0.27533 z"
         fill="#370808"
         id="path32"
         style="fill:#000000;stroke-width:0.264583" /><path
         d="m 140.07425,134.51697 c -0.47625,0 -0.93266,-0.0819 -1.36922,-0.24559 -0.43154,-0.1637 -0.8136,-0.39439 -1.14591,-0.69204 -0.33232,-0.30261 -0.58288,-0.65485 -0.75142,-1.05667 l 1.84547,-0.81113 c 0.12382,0.23317 0.30983,0.45394 0.55801,0.6623 0.24791,0.20836 0.5408,0.31253 0.87815,0.31253 0.17859,0 0.3347,-0.0298 0.46884,-0.0893 0.13388,-0.0645 0.23812,-0.14634 0.31247,-0.24556 0.0794,-0.0992 0.11906,-0.20587 0.11906,-0.31999 0,-0.14385 -0.0572,-0.26789 -0.17118,-0.37205 -0.11404,-0.1042 -0.26035,-0.19349 -0.43894,-0.26789 -0.1786,-0.0744 -0.36725,-0.13891 -0.56568,-0.19349 -0.19341,-0.0546 -0.37201,-0.10417 -0.53578,-0.14883 -0.37704,-0.11409 -0.73422,-0.27038 -1.07157,-0.46882 -0.33231,-0.20338 -0.60272,-0.46135 -0.81121,-0.7739 -0.20823,-0.31253 -0.31247,-0.69205 -0.31247,-1.13853 0,-0.47128 0.12171,-0.88554 0.36459,-1.24272 0.24818,-0.36214 0.58288,-0.64493 1.00463,-0.84831 0.42677,-0.20341 0.91281,-0.30509 1.45864,-0.30509 0.67945,0 1.28985,0.15626 1.83039,0.46879 0.54584,0.31255 0.93266,0.72678 1.16099,1.24272 l -1.80816,0.78134 c -0.0945,-0.15875 -0.23336,-0.31253 -0.41672,-0.46135 -0.17859,-0.14883 -0.40693,-0.22326 -0.68474,-0.22326 -0.2331,0 -0.42651,0.0595 -0.5805,0.17859 -0.15372,0.11907 -0.23071,0.26789 -0.23071,0.44649 0,0.17859 0.077,0.32247 0.23071,0.43161 0.15399,0.10914 0.34978,0.20339 0.58791,0.28276 0.23812,0.0794 0.4863,0.15629 0.74427,0.23069 0.19844,0.0546 0.42916,0.13396 0.69189,0.23813 0.26299,0.0992 0.51858,0.23564 0.76649,0.40928 0.25295,0.17362 0.46144,0.39688 0.62521,0.66972 0.16854,0.27286 0.25295,0.60772 0.25295,1.00459 0,0.50107 -0.13891,0.94507 -0.41672,1.33202 -0.27279,0.38198 -0.63738,0.67964 -1.09379,0.89297 -0.45164,0.21331 -0.95012,0.31999 -1.49595,0.31999 z"
         fill="#370808"
         id="path33"
         style="fill:#000000;stroke-width:0.264583" /><path
         d="m 152.63957,134.3979 v -8.00695 h 2.23997 v 1.01947 h 0.041 c 0.17489,-0.2436 0.372,-0.44948 0.59134,-0.61765 0.44662,-0.34726 0.97499,-0.52088 1.58512,-0.52088 0.50615,0 0.93504,0.12401 1.28746,0.37206 0.27173,0.18491 0.49318,0.43296 0.66437,0.74414 h 0.0421 c 0.25347,-0.32319 0.56144,-0.57619 0.92313,-0.75901 0.47122,-0.23813 0.98478,-0.35719 1.5404,-0.35719 0.53076,0 0.96732,0.0942 1.30969,0.28276 0.34237,0.18357 0.61013,0.42664 0.80354,0.72927 0.19368,0.29766 0.32994,0.62508 0.40931,0.98227 0.0794,0.35221 0.11906,0.69453 0.11906,1.0269 v 5.10481 h -2.36616 v -4.81459 c 0,-0.43656 -0.0918,-0.77142 -0.27544,-1.0046 -0.17859,-0.23812 -0.44159,-0.35719 -0.78872,-0.35719 -0.22833,0 -0.4318,0.0521 -0.61039,0.15627 -0.17357,0.0992 -0.31248,0.25053 -0.41672,0.45394 -0.0992,0.20339 -0.1487,0.45392 -0.1487,0.75158 v 4.81459 h -2.35161 v -4.81459 c 0,-0.43656 -0.0916,-0.77142 -0.27517,-1.0046 -0.18362,-0.23812 -0.449,-0.35719 -0.7964,-0.35719 -0.33734,0 -0.61753,0.11658 -0.84084,0.34976 -0.22305,0.2282 -0.3347,0.57049 -0.3347,1.0269 v 4.79972 z"
         fill="#370808"
         id="path34"
         style="fill:#000000;stroke-width:0.264583" /><path
         d="m 145.38205,134.16721 c 0.45165,0.23318 0.9525,0.34976 1.50336,0.34976 0.64982,0 1.22529,-0.15875 1.72641,-0.47625 0.25347,-0.16317 0.48419,-0.34923 0.69189,-0.55812 h 0.0598 c 0.0709,0.16278 0.17489,0.30663 0.31248,0.43162 0.27278,0.24805 0.70432,0.44894 1.2946,0.60275 l 0.83344,-1.96453 c -0.25797,-0.0943 -0.42916,-0.20588 -0.51329,-0.33486 -0.0844,-0.12899 -0.12647,-0.33735 -0.12647,-0.62508 v -5.20155 h -2.35162 v 4.71784 c 0,0.29271 -0.0571,0.5457 -0.17119,0.75904 -0.109,0.20836 -0.26299,0.36959 -0.46143,0.48368 -0.19341,0.11412 -0.4191,0.17116 -0.67707,0.17116 -0.34713,0 -0.64241,-0.11906 -0.88556,-0.35719 -0.23812,-0.2431 -0.35719,-0.59531 -0.35719,-1.05669 v -4.71784 h -2.35135 v 5.03039 c 0,0.67469 0.1315,1.24272 0.39423,1.70408 0.26802,0.4564 0.62759,0.80367 1.07897,1.04179 z"
         fill="#370808"
         id="path35"
         style="fill:#000000;stroke-width:0.264583" /><path
         fill-rule="evenodd"
         clip-rule="evenodd"
         d="m 119.582,134.51697 c -0.76914,0 -1.47108,-0.17614 -2.10608,-0.52835 -0.62997,-0.35224 -1.13348,-0.83841 -1.51051,-1.45852 -0.372,-0.62013 -0.558,-1.3345 -0.558,-2.14312 0,-0.80865 0.186,-1.52302 0.558,-2.14313 0.37703,-0.62013 0.88054,-1.10381 1.51051,-1.45108 0.635,-0.34726 1.33694,-0.52088 2.10608,-0.52088 0.7837,0 1.49067,0.17362 2.12064,0.52088 0.63024,0.34727 1.12871,0.83095 1.49569,1.45108 0.37227,0.62011 0.55827,1.33448 0.55827,2.14313 0,0.80862 -0.186,1.52299 -0.55827,2.14312 -0.36698,0.62011 -0.8681,1.10628 -1.5031,1.45852 -0.62997,0.35221 -1.33456,0.52835 -2.11323,0.52835 z m 0,-2.0092 c 0.36698,0 0.69692,-0.0893 0.98954,-0.26789 0.2929,-0.17859 0.52335,-0.42664 0.69215,-0.74414 0.16854,-0.3175 0.25295,-0.68709 0.25295,-1.10876 0,-0.4068 -0.0818,-0.76896 -0.24554,-1.08646 -0.16377,-0.3175 -0.38946,-0.56555 -0.67707,-0.74414 -0.28786,-0.18354 -0.62018,-0.27533 -0.99721,-0.27533 -0.372,0 -0.70697,0.0893 -1.00462,0.2679 -0.29263,0.17364 -0.52335,0.4192 -0.69215,0.7367 -0.16854,0.3175 -0.25295,0.68461 -0.25295,1.10133 0,0.42167 0.0844,0.79126 0.25295,1.10876 0.17383,0.3175 0.40693,0.56555 0.69955,0.74414 0.29263,0.1786 0.62019,0.26789 0.9824,0.26789 z"
         fill="#370808"
         id="path36"
         style="fill:#000000;stroke-width:0.264583" /><path
         fill-rule="evenodd"
         clip-rule="evenodd"
         d="m 110.27819,137.64236 c -0.66489,0 -1.27502,-0.0819 -1.83065,-0.24556 -0.5506,-0.15875 -0.98478,-0.32248 -1.30228,-0.49115 l 0.77391,-1.84547 c 0.27781,0.16867 0.60034,0.31255 0.96732,0.43162 0.372,0.12401 0.74903,0.18603 1.13109,0.18603 0.32755,0 0.66728,-0.0546 1.01944,-0.1637 0.35242,-0.10914 0.65246,-0.28279 0.90038,-0.52091 0.24818,-0.23315 0.37227,-0.54073 0.37227,-0.92274 v -0.7739 h -0.0357 c -0.14552,0.14364 -0.30242,0.27511 -0.47043,0.39438 -0.53076,0.37209 -1.13612,0.55812 -1.81557,0.55812 -0.42175,0 -0.84085,-0.0794 -1.25757,-0.23813 -0.41672,-0.1637 -0.79639,-0.40928 -1.13876,-0.7367 -0.33735,-0.33237 -0.60749,-0.74661 -0.81095,-1.2427 -0.20347,-0.49609 -0.30507,-1.07902 -0.30507,-1.74874 0,-0.89297 0.17357,-1.63462 0.5207,-2.22498 0.35243,-0.59532 0.80381,-1.0418 1.3544,-1.33946 0.5506,-0.3026 1.12369,-0.45392 1.719,-0.45392 0.68951,0 1.29223,0.17611 1.80817,0.52835 0.16562,0.11197 0.31961,0.23601 0.46169,0.37206 h 0.0444 v -0.78134 h 2.13572 v 7.55303 c 0,0.61018 -0.10425,1.14596 -0.31247,1.60734 -0.20849,0.46136 -0.50377,0.84831 -0.88556,1.16086 -0.37703,0.31253 -0.82365,0.54571 -1.33959,0.69948 -0.51594,0.15875 -1.084,0.23813 -1.70392,0.23813 z m 0.28999,-5.30572 c 0.35719,0 0.6723,-0.0893 0.94509,-0.26789 0.27305,-0.17859 0.48868,-0.42664 0.64743,-0.74414 0.15875,-0.32247 0.23813,-0.69453 0.23813,-1.11622 0,-0.42664 -0.0767,-0.79127 -0.23072,-1.09387 -0.15372,-0.30758 -0.36459,-0.54324 -0.63235,-0.70694 -0.26802,-0.16373 -0.57812,-0.24556 -0.93028,-0.24556 -0.35216,0 -0.66728,0.0843 -0.94509,0.25299 -0.27781,0.16373 -0.49609,0.39937 -0.65484,0.70694 -0.15372,0.30758 -0.23072,0.66972 -0.23072,1.08644 0,0.41671 0.077,0.78631 0.23072,1.10879 0.15372,0.3175 0.36459,0.568 0.63262,0.75157 0.26776,0.17859 0.57785,0.26789 0.93001,0.26789 z"
         fill="#370808"
         id="path37"
         style="fill:#000000;stroke-width:0.264583" /><path
         fill-rule="evenodd"
         clip-rule="evenodd"
         d="m 101.70358,134.51697 c -0.76915,0 -1.47109,-0.17614 -2.106085,-0.52835 -0.629973,-0.35224 -1.133475,-0.83841 -1.510507,-1.45852 -0.372004,-0.62013 -0.558006,-1.3345 -0.558006,-2.14312 0,-0.80865 0.186002,-1.52302 0.558006,-2.14313 0.377032,-0.62013 0.880534,-1.10381 1.510507,-1.45108 0.634995,-0.34726 1.336935,-0.52088 2.106085,-0.52088 0.78369,0 1.49066,0.17362 2.12063,0.52088 0.63024,0.34727 1.12872,0.83095 1.49569,1.45108 0.37227,0.62011 0.55827,1.33448 0.55827,2.14313 0,0.80862 -0.186,1.52299 -0.55827,2.14312 -0.36697,0.62011 -0.86809,1.10628 -1.50309,1.45852 -0.62998,0.35221 -1.33456,0.52835 -2.11323,0.52835 z m 0,-2.0092 c 0.36698,0 0.69691,-0.0893 0.98954,-0.26789 0.29289,-0.17859 0.52335,-0.42664 0.69215,-0.74414 0.16854,-0.3175 0.25294,-0.68709 0.25294,-1.10876 0,-0.4068 -0.0817,-0.76896 -0.24553,-1.08646 -0.16378,-0.3175 -0.38947,-0.56555 -0.67707,-0.74414 -0.28787,-0.18354 -0.62018,-0.27533 -0.99722,-0.27533 -0.372,0 -0.70696,0.0893 -1.00462,0.2679 -0.29263,0.17364 -0.52334,0.4192 -0.69215,0.7367 -0.168538,0.3175 -0.25294,0.68461 -0.25294,1.10133 0,0.42167 0.0844,0.79126 0.25294,1.10876 0.17383,0.3175 0.40693,0.56555 0.69956,0.74414 0.29263,0.1786 0.62018,0.26789 0.9824,0.26789 z"
         fill="#370808"
         id="path38"
         style="fill:#000000;stroke-width:0.264583" /><path
         d="m 91.171839,134.3979 v -10.96863 h 2.440781 v 8.79574 h 3.951287 v 2.17289 z"
         fill="#370808"
         id="path39"
         style="fill:#000000;stroke-width:0.264583" /></g><g
       id="g65"><path
         fill-rule="evenodd"
         clip-rule="evenodd"
         d="m 72.103556,127.03899 c -0.990256,0 -1.970802,0.19453 -2.885678,0.57243 -0.91485,0.37791 -1.746144,0.93178 -2.446337,1.63007 -0.70022,0.69826 -1.25566,1.52723 -1.634623,2.43957 -0.337026,0.81139 -0.528584,1.6746 -0.566843,2.55034 -0.0088,0.20045 -0.120624,0.38394 -0.300196,0.47345 l -2.430145,1.21174 c -0.179573,0.0895 -0.294667,0.27299 -0.285909,0.47344 0.03826,0.87575 0.229817,1.73895 0.566843,2.55035 0.378963,0.91233 0.934403,1.7413 1.634623,2.43956 0.700193,0.69829 1.531487,1.25217 2.446337,1.63007 0.914876,0.37791 1.895422,0.57243 2.885678,0.57243 0.990256,0 1.970802,-0.19452 2.885678,-0.57243 0.914876,-0.3779 1.746144,-0.93178 2.446338,-1.63007 0.700219,-0.69826 1.255659,-1.52723 1.634622,-2.43956 0.337026,-0.8114 0.528585,-1.6746 0.566843,-2.55035 0.0088,-0.20045 0.120624,-0.38391 0.300197,-0.47344 l 2.430144,-1.21174 c 0.179573,-0.0895 0.294667,-0.273 0.285909,-0.47345 -0.03826,-0.87574 -0.229817,-1.73895 -0.566843,-2.55034 -0.378963,-0.91234 -0.934403,-1.74131 -1.634622,-2.43957 -0.700194,-0.69829 -1.531462,-1.25216 -2.446338,-1.63007 -0.914876,-0.3779 -1.895422,-0.57243 -2.885678,-0.57243 z m 3.483319,6.08092 c 0.147505,0.35513 0.239289,0.73012 0.272706,1.11181 0.01749,0.19987 -0.09919,0.38362 -0.278765,0.47313 l -2.430145,1.21174 c -0.179573,0.0895 -0.289851,0.27326 -0.30734,0.47312 -0.03342,0.38169 -0.125201,0.75669 -0.272706,1.11181 -0.189468,0.45617 -0.467201,0.87066 -0.817298,1.21981 -0.350123,0.34912 -0.765757,0.62608 -1.223195,0.81502 -0.457412,0.18897 -0.947711,0.2862 -1.442826,0.2862 -0.495115,0 -0.985388,-0.0972 -1.442826,-0.2862 -0.457438,-0.18894 -0.873072,-0.4659 -1.223195,-0.81502 -0.350097,-0.34915 -0.627803,-0.76364 -0.817298,-1.21981 -0.147505,-0.35512 -0.239289,-0.73012 -0.272706,-1.11181 -0.01749,-0.19986 0.09919,-0.38359 0.278765,-0.47312 l 2.430145,-1.21174 c 0.179573,-0.0895 0.289851,-0.27326 0.30734,-0.47313 0.03342,-0.38169 0.125201,-0.75668 0.272706,-1.11181 0.189468,-0.45616 0.467201,-0.87066 0.817298,-1.2198 0.350123,-0.34912 0.765757,-0.62609 1.223195,-0.81503 0.457438,-0.18896 0.947711,-0.2862 1.442826,-0.2862 0.495115,0 0.985414,0.0972 1.442826,0.2862 0.457438,0.18894 0.873072,0.46591 1.223195,0.81503 0.350097,0.34914 0.62783,0.76364 0.817298,1.2198 z"
         fill="#e22935"
         id="path28"
         style="fill:#29a949;fill-opacity:1;stroke-width:0.264583" /><path
         fill-rule="evenodd"
         clip-rule="evenodd"
         d="m 72.103556,121.02322 c -1.782445,0 -3.547454,0.3501 -5.19422,1.03033 -1.646767,0.68022 -3.143039,1.67725 -4.403434,2.93413 -1.26037,1.2569 -2.260151,2.74905 -2.942273,4.39124 -0.640212,1.5413 -0.988801,3.18648 -1.029229,4.8524 -0.0049,0.20058 -0.117449,0.38402 -0.297021,0.47353 l -2.430156,1.21174 c -0.179562,0.0895 -0.293935,0.27294 -0.289069,0.47352 0.04042,1.66592 0.389018,3.3111 1.029223,4.85241 0.682111,1.64221 1.681906,3.13436 2.942275,4.39123 1.260395,1.25688 2.756667,2.25404 4.40346,2.93402 1.646767,0.68024 3.411749,1.03055 5.194194,1.03055 1.782445,0 3.547454,-0.35031 5.194221,-1.03055 1.646766,-0.67998 3.143038,-1.67714 4.403434,-2.93402 1.260369,-1.25687 2.260176,-2.74902 2.942272,-4.39123 0.640318,-1.54131 0.988774,-3.18649 1.029256,-4.85241 0.0048,-0.20058 0.117475,-0.38399 0.296862,-0.47352 l 2.430198,-1.21174 c 0.179652,-0.0895 0.293952,-0.27295 0.28919,-0.47353 -0.04048,-1.66592 -0.388938,-3.3111 -1.02923,-4.8524 -0.682095,-1.64219 -1.681956,-3.13434 -2.942298,-4.39124 -1.260396,-1.25688 -2.756668,-2.25391 -4.403434,-2.93413 -1.646767,-0.68022 -3.411776,-1.03033 -5.194221,-1.03033 z m 6.781059,15.36686 c 0.0067,-0.20052 0.118983,-0.38396 0.298556,-0.47349 l 2.430145,-1.21174 c 0.179573,-0.0895 0.294402,-0.27297 0.287523,-0.4735 -0.03942,-1.17208 -0.289957,-2.32847 -0.740675,-3.41358 -0.492628,-1.18604 -1.214702,-2.26372 -2.124974,-3.17145 -0.910273,-0.90776 -1.990937,-1.62782 -3.180266,-2.1191 -1.189328,-0.49128 -2.464038,-0.74414 -3.751368,-0.74414 -1.28733,0 -2.56204,0.25286 -3.751368,0.74414 -1.189329,0.49128 -2.269993,1.21134 -3.180265,2.1191 -0.910273,0.90773 -1.632347,1.98541 -2.124975,3.17145 -0.450718,1.08511 -0.701331,2.2415 -0.740701,3.41358 -0.0067,0.20053 -0.118983,0.38399 -0.298556,0.4735 l -2.430145,1.21174 c -0.179572,0.0895 -0.294296,0.27297 -0.287549,0.47349 0.03937,1.17208 0.289983,2.32847 0.740701,3.41361 0.492628,1.18602 1.214702,2.26369 2.124975,3.17142 0.910272,0.90776 1.990936,1.62783 3.180265,2.1191 1.189328,0.49128 2.464038,0.74414 3.751368,0.74414 1.28733,0 2.56204,-0.25286 3.751368,-0.74414 1.189329,-0.49127 2.269993,-1.21134 3.180266,-2.1191 0.910272,-0.90773 1.632346,-1.9854 2.125001,-3.17142 0.450717,-1.08514 0.701304,-2.24153 0.740674,-3.41361 z"
         fill="#e22935"
         id="path29"
         style="fill:#29a949;fill-opacity:1;stroke-width:0.264583" /><path
         d="m 85.672739,134.25238 h -3.771636 c -0.0016,0.19225 -0.114564,0.36608 -0.287734,0.45249 l -2.430172,1.21172 c -0.173249,0.0864 -0.283845,0.26021 -0.297444,0.45246 h 3.771529 c 0.01217,-0.19227 0.123032,-0.36608 0.296334,-0.45246 l 2.430198,-1.21172 c 0.173037,-0.0864 0.28575,-0.26019 0.288925,-0.45249 z"
         fill="#ff6670"
         id="path51"
         style="fill:#3acf60;fill-opacity:1;stroke-width:0.264583" /><path
         d="m 55.518123,136.36905 h 3.771662 c 0.0016,-0.19225 0.114539,-0.36608 0.287788,-0.45246 l 2.430171,-1.21172 c 0.173276,-0.0864 0.283845,-0.26024 0.297445,-0.45249 h -3.771662 c -0.01193,0.1923 -0.122846,0.36611 -0.296095,0.45249 l -2.430166,1.21172 c -0.173258,0.0864 -0.285824,0.26019 -0.289143,0.45246 z"
         fill="#ff6670"
         id="path52"
         style="fill:#3acf60;fill-opacity:1;stroke-width:0.264583" /><path
         d="m 64.568831,134.25238 c -0.01537,0.1922 -0.125624,0.36608 -0.298899,0.45249 l -2.430172,1.21172 c -0.173275,0.0864 -0.286517,0.26027 -0.286358,0.45246 h 3.776583 c -0.008,-0.1918 0.106733,-0.36602 0.280088,-0.45246 l 2.430171,-1.21172 c 0.173355,-0.0864 0.282125,-0.26069 0.305197,-0.45249 z"
         fill="#ff6670"
         id="path53"
         style="fill:#3acf60;fill-opacity:1;stroke-width:0.264583" /><path
         d="m 75.860957,134.25238 c 0.008,0.1918 -0.106733,0.36605 -0.280088,0.45249 l -2.430171,1.21172 c -0.173355,0.0864 -0.282126,0.26066 -0.305171,0.45246 h 3.77661 c 0.01537,-0.19219 0.125597,-0.36608 0.298873,-0.45246 l 2.430171,-1.21172 c 0.173276,-0.0864 0.286518,-0.26029 0.286359,-0.45249 z"
         fill="#ff6670"
         id="path54"
         style="fill:#3acf60;fill-opacity:1;stroke-width:0.264583" /></g></g></svg>
